<?xml version="1.0" encoding="UTF-8" standalone="no"?>
<!-- Created with Inkscape (http://www.inkscape.org/) -->

<svg
   viewBox="0 0 34.734829 52.160622"
   version="1.1"
   id="svg5"
   xml:space="preserve"
   xmlns:xlink="http://www.w3.org/1999/xlink"
   xmlns="http://www.w3.org/2000/svg"
   xmlns:svg="http://www.w3.org/2000/svg"><defs
     id="defs2"><linearGradient
       id="linearGradient4953"><stop
         style="stop-color:#868686;stop-opacity:1;"
         offset="0"
         id="stop4949" /><stop
         style="stop-color:#ffffff;stop-opacity:1;"
         offset="0.50593823"
         id="stop4957" /><stop
         style="stop-color:#9c9c9c;stop-opacity:1;"
         offset="1"
         id="stop4951" /></linearGradient><linearGradient
       id="linearGradient1887"><stop
         style="stop-color:#828282;stop-opacity:1;"
         offset="0"
         id="stop1883" /><stop
         style="stop-color:#fcfcfc;stop-opacity:1;"
         offset="0.5219512"
         id="stop1885" /><stop
         style="stop-color:#b9b9b9;stop-opacity:1;"
         offset="1"
         id="stop1891" /></linearGradient><rect
       x="186.32507"
       y="257.30606"
       width="490.95181"
       height="585.59314"
       id="rect1576" /><linearGradient
       xlink:href="#linearGradient1887"
       id="linearGradient1889"
       x1="252.99609"
       y1="297.50195"
       x2="253.26001"
       y2="433.7207"
       gradientUnits="userSpaceOnUse" /><linearGradient
       xlink:href="#linearGradient4953"
       id="linearGradient4955"
       x1="96"
       y1="512"
       x2="512"
       y2="96"
       gradientUnits="userSpaceOnUse" /></defs><g
     id="layer1"
     transform="translate(-49.571134,-62.594648)"><path
       id="text1574"
       style="font-style:normal;font-variant:normal;font-weight:normal;font-stretch:normal;font-size:192px;font-family:Georgia;-inkscape-font-specification:Georgia;white-space:pre;shape-inside:url(#rect1576);fill:url(#linearGradient1889);fill-opacity:1;stroke:#3d2200;stroke-width:0;stroke-linecap:round;stroke-linejoin:bevel;paint-order:fill markers stroke"
       d="m 221.94922,297.50196 v 6.65625 c 1.875,0.125 4.25,0.46875 7.125,1.03125 2.9375,0.5 5.375,1.25 7.3125,2.25 2.25,1.125 3.71875,2.4375 4.40625,3.9375 0.75,1.4375 1.125,3.25 1.125,5.4375 v 70.40625 c 0,5.87499 -0.3125,11.1875 -0.9375,15.9375 -0.5625,4.74999 -1.53125,8.75 -2.90625,12 -1.4375,3.49999 -3.625,6.3125 -6.5625,8.4375 -2.875,2.0625 -6.59375,3.09375 -11.15625,3.09375 -4.68749,0 -8.4375,-0.78125 -11.25,-2.34375 -2.75,-1.5625 -4.78125,-3.375 -6.09375,-5.4375 0.5,-1.5625 1.34375,-3.3125 2.53125,-5.25 1.1875,-1.9375 2.25,-3.625 3.1875,-5.0625 1,-1.5625 1.90625,-3.34375 2.71875,-5.34375 0.8125,-2 1.21875,-4 1.21875,-6 0,-3.4375 -1.15625,-6.1875 -3.46875,-8.25 -2.25,-2.125 -5.25,-3.1875 -9,-3.1875 -4.18749,0 -7.375,1.65625 -9.5625,4.96875 -2.1875,3.24999 -3.28125,7 -3.28125,11.25 0,9.68749 3.15626,17.40625 9.46875,23.15625 6.37499,5.68749 14.65626,8.53125 24.84375,8.53125 6.56249,0 12.37501,-1.1875 17.4375,-3.5625 5.125,-2.375 9.53126,-5.68751 13.21875,-9.9375 0.23123,-0.26297 0.44887,-0.53451 0.67188,-0.80274 0.223,0.26823 0.44064,0.53977 0.67187,0.80274 3.6875,4.24999 8.09376,7.5625 13.21875,9.9375 5.0625,2.375 10.87501,3.5625 17.4375,3.5625 10.18749,0 18.46876,-2.84376 24.84375,-8.53125 6.3125,-5.75 9.46875,-13.46876 9.46875,-23.15625 0,-4.25 -1.09375,-8.00001 -3.28125,-11.25 -2.1875,-3.3125 -5.375,-4.96875 -9.5625,-4.96875 -3.74999,0 -6.75,1.0625 -9,3.1875 -2.3125,2.0625 -3.46875,4.8125 -3.46875,8.25 0,2 0.40625,4 1.21875,6 0.8125,2 1.71875,3.78125 2.71875,5.34375 0.9375,1.4375 2,3.125 3.1875,5.0625 1.1875,1.9375 2.03125,3.6875 2.53125,5.25 -1.3125,2.0625 -3.34375,3.875 -6.09375,5.4375 -2.81249,1.5625 -6.5625,2.34375 -11.25,2.34375 -4.56249,0 -8.28125,-1.03125 -11.15625,-3.09375 -2.93749,-2.125 -5.125,-4.93751 -6.5625,-8.4375 -1.375,-3.25 -2.34375,-7.25001 -2.90625,-12 -0.625,-4.75 -0.9375,-10.06251 -0.9375,-15.9375 v -70.40625 c 0,-2.1875 0.375,-4 1.125,-5.4375 0.6875,-1.5 2.15625,-2.8125 4.40625,-3.9375 1.9375,-1 4.37501,-1.75 7.3125,-2.25 2.875,-0.5625 5.25,-0.90625 7.125,-1.03125 v -6.65625 h -3.40625 -55.28125 z"
       transform="scale(0.26458333)" /><path
       d="M 96,0 C 42.98,0 0,42.98 0,96 v 320 c 0,53.02 42.98,96 96,96 h 320 c 53.02,0 96,-42.98 96,-96 V 96 C 512,42.98 469.02,0 416,0 Z m 32,176 c -26.51,0 -48,-21.49 -48,-48 0,-26.51 21.49,-48 48,-48 26.51,0 48,21.49 48,48 0,26.51 -21.49,48 -48,48 z m 256,0 c -26.51,0 -48,-21.49 -48,-48 0,-26.51 21.49,-48 48,-48 26.51,0 48,21.49 48,48 0,26.51 -21.49,48 -48,48 z m 48,208 c 0,26.51 -21.49,48 -48,48 -26.51,0 -48,-21.49 -48,-48 0,-26.51 21.49,-48 48,-48 26.51,0 48,21.49 48,48 z m -304,48 c -26.51,0 -48,-21.49 -48,-48 0,-26.51 21.49,-48 48,-48 26.51,0 48,21.49 48,48 0,26.51 -21.49,48 -48,48 z"
       id="path1824"
       style="fill:url(#linearGradient4955);fill-opacity:1"
       transform="matrix(-0.01437909,0.01437909,-0.01437909,-0.01437909,74.300644,69.148134)" /></g></svg>
